<svg width="798" height="521" viewBox="0 0 798 521" fill="none" xmlns="http://www.w3.org/2000/svg">
<path opacity="0.2" d="M399 520.951C619.362 520.951 798 500.15 798 474.49C798 448.83 619.362 428.029 399 428.029C178.638 428.029 0 448.83 0 474.49C0 500.15 178.638 520.951 399 520.951Z" fill="#303030"/>
<g opacity="0.5">
<path d="M271.223 99.0528C272.05 81.198 287.815 66.1163 305.43 66.1163C330.392 66.1163 338.566 85.5279 339.539 103.334C340.561 121.87 324.455 134.519 306.841 134.519C289.275 134.519 270.201 121.189 271.223 99.0528Z" fill="#786AB5"/>
<path d="M277.402 100.901C277.402 86.6955 291.367 71.5651 305.381 71.0786C326.11 70.3975 334.479 91.7065 334.479 105.961C334.479 120.167 320.027 128.632 306.014 128.632C292 128.632 277.402 115.107 277.402 100.901Z" fill="white"/>
<path d="M302.365 100.415C302.559 98.4689 304.603 97.204 306.501 97.204C308.398 97.204 310.49 99.5393 310.49 101.485C310.49 103.431 308.447 105.037 306.501 105.037C304.603 105.037 302.024 104.015 302.365 100.415Z" fill="#786AB5"/>
<path d="M306.501 102.215H307.182C307.571 102.215 307.863 101.923 307.863 101.534C307.863 101.145 308.739 99.8312 308.35 99.8312L307.96 99.0041L307.133 79.7871L308.009 80.3223C308.204 80.6628 308.642 80.7115 308.982 80.5169C309.274 80.2736 309.372 79.8844 309.177 79.5438L307.036 76.3815C306.841 76.1383 306.549 76.041 306.257 76.0896C305.965 76.1869 305.771 76.4302 305.771 76.7708L304.603 101.437C304.652 101.826 306.16 102.215 306.501 102.215Z" fill="#786AB5"/>
<path d="M304.116 80.4196C304.311 80.4196 304.506 80.3222 304.652 80.1763L307.279 78.2789C307.522 77.987 307.182 76.5275 306.89 76.2842C306.598 76.041 306.16 76.0896 305.917 76.3815L303.581 79.3006C303.338 79.5925 303.386 80.0303 303.678 80.2736C303.824 80.3709 303.97 80.4196 304.116 80.4196Z" fill="#786AB5"/>
<path d="M319.054 104.453C319.249 104.453 319.395 104.404 319.541 104.258L321.584 102.118C321.779 101.923 321.828 101.631 321.73 101.339C321.633 101.096 321.39 100.901 321.098 100.901L304.797 100.026C304.408 100.026 304.213 101.242 304.213 101.631V102.361C304.213 102.75 304.505 103.042 304.895 103.042C305.284 103.042 306.16 103.383 306.16 102.993L305.624 102.312L319.492 102.264L318.568 103.237C318.324 103.529 318.324 103.966 318.568 104.21C318.665 104.404 318.86 104.453 319.054 104.453Z" fill="#786AB5"/>
<path d="M321.098 102.312C321.244 102.312 321.39 102.264 321.536 102.166C321.828 101.923 321.877 101.485 321.633 101.193L319.736 98.8095C319.492 98.5176 319.054 98.4689 318.762 98.7122C318.47 98.9555 318.422 99.3933 318.665 99.6852L319.395 101.485C319.541 101.631 320.903 102.312 321.098 102.312Z" fill="#786AB5"/>
</g>
<path d="M659.615 486.409C660.053 486.409 660.54 486.312 660.978 486.166C663.119 485.388 664.238 483.052 663.508 480.912L585.459 259.746C584.681 257.605 582.345 256.486 580.204 257.216C578.063 257.995 576.944 260.33 577.674 262.47L655.722 483.636C656.306 485.339 657.912 486.409 659.615 486.409Z" fill="#786AB5"/>
<path d="M765.642 486.409C766.08 486.409 766.566 486.312 767.004 486.166C769.145 485.388 770.264 483.052 769.535 480.912L691.486 259.746C690.708 257.605 688.372 256.486 686.231 257.216C684.09 257.995 682.971 260.33 683.701 262.47L761.749 483.636C762.382 485.339 763.939 486.409 765.642 486.409Z" fill="#786AB5"/>
<path d="M635.334 413.482L741.361 413.433L744.33 421.801L637.816 420.536L635.334 413.482Z" fill="#786AB5"/>
<path d="M605.118 335.592H711.145L714.113 343.912L607.599 342.647L605.118 335.592Z" fill="#786AB5"/>
<path d="M590.033 283.39L696.109 283.341L699.028 291.709L592.515 290.444L590.033 283.39Z" fill="#786AB5"/>
<path d="M603.269 472.787C605.069 472.787 606.772 471.571 607.259 469.722L629.35 386.384C629.933 384.194 628.62 381.956 626.43 381.373C624.24 380.789 622.002 382.102 621.418 384.292L599.327 467.63C598.743 469.819 600.057 472.057 602.247 472.641C602.587 472.739 602.928 472.787 603.269 472.787Z" fill="#786AB5"/>
<path d="M387.273 0H605.896C613.243 0 619.18 5.93538 619.18 13.2816V52.9806C619.18 75.068 601.273 92.9714 579.134 92.9714H387.273C379.926 92.9714 373.989 87.036 373.989 79.6898V13.2816C373.989 5.93538 379.926 0 387.273 0Z" fill="#786AB5"/>
<path d="M599.668 70.6894C601.322 70.6894 602.149 72.6841 601.03 73.9004C593.585 82.0737 582.978 87.182 571.154 87.182H421.675C415.933 87.182 411.262 82.4629 411.262 76.6248V72.6354C411.262 71.5651 412.089 70.7381 413.111 70.7381H599.668V70.6894Z" fill="#552748"/>
<path d="M414.619 60.5701H606.139C606.771 60.5701 607.307 60.0349 607.307 59.4025C607.307 58.77 606.771 58.2348 606.139 58.2348H414.619C413.986 58.2348 413.451 58.77 413.451 59.4025C413.451 60.0349 413.986 60.5701 414.619 60.5701Z" fill="#552748"/>
<path d="M414.619 51.6184H606.139C606.771 51.6184 607.307 51.0832 607.307 50.4507C607.307 49.8183 606.771 49.2831 606.139 49.2831H414.619C413.986 49.2831 413.451 49.8183 413.451 50.4507C413.451 51.0832 413.986 51.6184 414.619 51.6184Z" fill="#552748"/>
<path d="M418.22 12.2113C420.209 12.2113 421.821 10.5777 421.821 8.56252C421.821 6.54734 420.209 4.91372 418.22 4.91372C416.231 4.91372 414.619 6.54734 414.619 8.56252C414.619 10.5777 416.231 12.2113 418.22 12.2113Z" fill="#FFBA41"/>
<path d="M432.088 12.2113C434.076 12.2113 435.688 10.5777 435.688 8.56252C435.688 6.54734 434.076 4.91372 432.088 4.91372C430.099 4.91372 428.487 6.54734 428.487 8.56252C428.487 10.5777 430.099 12.2113 432.088 12.2113Z" fill="#FF443C"/>
<path d="M741.848 231.383C742.918 231.285 743.843 232.112 743.94 233.183L745.254 249.821C745.351 250.891 744.524 251.816 743.502 251.913C742.432 252.01 741.507 251.183 741.41 250.113L740.096 233.475C739.999 232.404 740.826 231.48 741.848 231.383Z" fill="#FDAD9B"/>
<path d="M736.933 231.772C738.004 231.674 738.928 232.502 739.026 233.572L740.534 252.156C740.631 253.227 739.804 254.2 738.782 254.248C737.712 254.346 736.787 253.519 736.69 252.448L735.182 233.864C735.084 232.793 735.911 231.869 736.933 231.772Z" fill="#FDAD9B"/>
<path d="M734.841 222.236L735.425 222.625C736.495 223.355 736.787 224.815 736.057 225.885L729.099 236.394C728.369 237.464 726.91 237.756 725.888 237.026L725.304 236.637C724.233 235.907 723.942 234.448 724.671 233.377L731.63 222.869C732.311 221.798 733.771 221.506 734.841 222.236Z" fill="#FDAD9B"/>
<path d="M732.019 232.21C733.089 232.112 734.014 232.939 734.111 234.01L735.328 248.897C735.425 249.967 734.598 250.94 733.576 250.989C732.505 251.086 731.581 250.259 731.484 249.189L730.267 234.302C730.17 233.231 730.997 232.258 732.019 232.21Z" fill="#FDAD9B"/>
<path d="M744.427 221.652C744.427 221.652 750.752 230.799 748.465 238.388C747.687 241.015 733.187 241.794 731.63 239.167C730.073 236.54 730.218 226.372 730.218 226.372L744.427 221.652Z" fill="#FDAD9B"/>
<path d="M746.762 230.945C747.833 230.847 748.757 231.674 748.855 232.745L750.071 247.632C750.169 248.702 749.341 249.627 748.32 249.724C747.249 249.821 746.325 248.994 746.227 247.924L744.962 233.037C744.913 231.966 745.692 231.042 746.762 230.945Z" fill="#FDAD9B"/>
<path d="M727.834 228.464C720.39 208.03 708.128 179.229 691.973 158.212C688.226 153.347 686.718 151.547 684.139 149.017C682.047 146.974 683.214 140.99 686.572 137.341C689.735 133.935 695.768 132.719 696.985 133.595C699.126 135.152 701.802 138.508 706.084 143.909C720.876 162.542 733.625 188.327 745.254 222.966L727.834 228.464Z" fill="#FDAD9B"/>
<g opacity="0.5">
<path d="M718.589 179.862C717.519 179.472 716.546 178.451 715.962 177.186C714.988 174.996 715.426 172.71 716.935 171.98C717.519 171.737 718.2 171.688 718.833 171.98C719.903 172.369 720.876 173.391 721.46 174.656C722.433 176.845 721.995 179.132 720.487 179.862C720.195 180.007 719.854 180.056 719.562 180.056C719.222 180.007 718.881 179.959 718.589 179.862ZM717.275 172.71C716.156 173.196 715.913 175.094 716.692 176.845C717.178 177.915 718.005 178.791 718.833 179.083C719.319 179.278 719.757 179.278 720.146 179.083C721.265 178.597 721.509 176.699 720.73 174.948C720.244 173.877 719.416 173.002 718.589 172.71C718.346 172.613 718.103 172.564 717.908 172.564C717.665 172.564 717.47 172.613 717.275 172.71Z" fill="#E08B65"/>
</g>
<path d="M656.549 121.432L654.311 111.605L653.678 108.734L649.883 91.9011L648.034 108.199L646.915 117.978L646.574 121.092C646.331 123.183 645.796 126.151 644.093 127.903C643.412 128.584 638.351 130.189 642.73 132.524C648.18 135.492 659.031 132.427 663.41 127.708C663.362 127.757 657.279 124.594 656.549 121.432Z" fill="#FDAD9B"/>
<path d="M636.064 95.1607C638.01 85.6252 645.942 79.2033 653.727 80.8574C661.512 82.5115 666.281 91.5606 664.335 101.145C662.388 110.68 654.457 117.102 646.672 115.448C638.837 113.794 634.118 104.696 636.064 95.1607Z" fill="#FDAD9B"/>
<path d="M642.536 91.366C634.264 91.074 630.663 85.9171 630.858 81.4899C631.15 75.7491 635.091 70.9327 639.081 73.4138C643.071 75.8464 641.66 70.4948 645.698 70.2516C653.192 69.765 654.214 75.2626 660.247 75.9437C668.227 76.9167 676.402 91.1227 668.957 100.561C668.957 100.512 649.056 91.6092 642.536 91.366Z" fill="#66192D"/>
<path d="M635.626 85.0414C635.626 85.0414 643.801 94.285 642.293 99.0528C640.784 103.821 640.93 105.718 645.893 108.686C650.857 111.653 645.991 115.497 652.803 116.324C659.615 117.151 668.617 109.561 669.59 96.0851C670.125 88.5442 666.233 83.3386 666.233 83.3386L635.626 85.0414Z" fill="#66192D"/>
<path d="M637.864 98.5176C638.984 97.1554 640.833 96.8635 642.049 97.8851C643.266 98.9068 643.314 100.804 642.244 102.166C641.125 103.529 639.276 103.821 638.059 102.799C636.843 101.777 636.745 99.8798 637.864 98.5176Z" fill="#FDAD9B"/>
<path d="M667.206 98.6149C667.254 98.6149 667.254 98.6149 667.303 98.6149C667.4 98.5663 667.449 98.469 667.449 98.323C666.719 96.377 664.773 95.5499 664.724 95.5013C664.627 95.4526 664.481 95.5013 664.432 95.5986C664.384 95.6959 664.432 95.8418 664.529 95.8905C664.529 95.8905 666.379 96.6689 667.06 98.4203C667.06 98.5663 667.108 98.6149 667.206 98.6149Z" fill="#66192D"/>
<path d="M664.432 94.8688C664.481 94.8688 667.011 94.3336 667.108 92.193C667.108 92.0957 667.011 91.9984 666.914 91.9498C666.816 91.9498 666.719 92.0471 666.67 92.1444C666.573 93.9444 664.432 94.3823 664.384 94.4309C664.286 94.4309 664.189 94.5769 664.238 94.6742C664.238 94.8202 664.335 94.8688 664.432 94.8688Z" fill="#66192D"/>
<path d="M640.443 73.122C640.687 73.122 640.881 73.0733 641.125 72.9273C642.292 72.2462 642.682 69.9597 642.682 69.8624C642.682 69.7651 642.633 69.6191 642.487 69.6191C642.39 69.6191 642.244 69.6678 642.244 69.8137C642.244 69.8137 641.855 72.0516 640.881 72.5868C640.638 72.7327 640.346 72.7328 640.054 72.6354C639.47 72.3922 638.984 72.003 638.546 71.6624C637.67 70.9327 636.745 70.2029 634.799 70.6894C634.702 70.7381 634.604 70.8354 634.653 70.9327C634.702 71.03 634.799 71.1273 634.896 71.0786C636.648 70.6408 637.378 71.2732 638.254 71.9543C638.74 72.3435 639.227 72.7327 639.86 72.976C640.103 73.122 640.249 73.122 640.443 73.122Z" fill="#66192D"/>
<path d="M660.102 75.2139C660.247 75.2139 660.442 75.2139 660.588 75.2139C660.685 75.2139 660.783 75.1166 660.783 74.9707C660.783 74.8734 660.685 74.7761 660.539 74.7761C657.377 75.068 654.846 72.2949 654.846 72.2949C654.749 72.1976 654.652 72.1976 654.554 72.2949C654.457 72.3922 654.457 72.4895 654.554 72.5868C654.652 72.6355 656.987 75.2139 660.102 75.2139Z" fill="#66192D"/>
<path d="M639.859 103.529C640.589 103.529 641.66 103.237 642.633 101.583C642.682 101.534 642.633 101.485 642.584 101.437C642.536 101.388 642.487 101.437 642.438 101.485C640.979 103.918 639.275 103.237 639.178 103.188C639.13 103.188 639.081 103.188 639.032 103.237C639.032 103.285 639.032 103.334 639.081 103.383C639.13 103.431 639.421 103.529 639.859 103.529Z" fill="#66192D"/>
<path d="M556.751 124.74C555.096 120.702 567.942 113.697 567.942 113.697C569.353 113.405 580.155 138.508 603.657 140.746C612.027 141.525 627.646 132.816 629.203 131.211C629.398 131.016 643.168 143.909 643.168 143.909C640.346 146.876 634.166 157.336 623.17 161.326C600.349 169.645 563.271 151.936 556.751 124.74Z" fill="#FDAD9B"/>
<path d="M658.447 396.989C658.447 396.989 658.301 403.168 654.165 404.919C650.029 406.671 638.108 408.228 642.585 412.217C645.163 414.504 657.182 413.044 660.588 413.044C663.994 413.044 667.206 414.552 669.736 412.217C672.51 409.687 669.736 397.038 669.736 397.038C669.736 397.038 666.817 398.595 664.14 398.498C660.345 398.352 658.447 396.989 658.447 396.989Z" fill="#66192D"/>
<path d="M622.926 210.706C622.926 210.706 622.099 238.583 630.858 292.001C637.183 330.581 644.628 369.453 648.326 388.086C649.64 394.752 655.138 399.617 661.707 399.908L665.21 400.054C672.315 400.346 678.056 394.168 677.521 386.821L668.665 260.768L666.476 219.269L622.926 210.706Z" fill="#0288D1"/>
<path d="M697.422 396.989C697.422 396.989 697.276 403.168 693.14 404.919C689.004 406.671 677.083 408.228 681.56 412.217C684.139 414.504 696.157 413.044 699.563 413.044C702.969 413.044 706.181 414.552 708.711 412.217C711.485 409.687 708.711 397.038 708.711 397.038C708.711 397.038 705.792 398.595 703.115 398.498C699.32 398.352 697.422 396.989 697.422 396.989Z" fill="#66192D"/>
<path d="M661.902 210.706C661.902 210.706 661.075 238.583 669.833 292.001C676.159 330.581 683.603 369.453 687.301 388.086C688.615 394.752 694.114 399.617 700.683 399.908L704.186 400.054C711.29 400.346 717.032 394.168 716.497 386.821L707.641 260.768L705.451 219.269L661.902 210.706Z" fill="#0288D1"/>
<path d="M689.151 137.876C689.151 137.876 682.387 121.043 650.37 125.421C604.193 131.746 615.336 164.439 619.228 206.571C619.228 206.571 661.464 204.868 705.792 208.079C705.792 208.128 702.873 163.077 689.151 137.876Z" fill="#FFBA41"/>
<path d="M707.008 137.146C707.008 137.146 701.51 155.488 687.058 160.888C673.337 165.996 625.116 174.899 614.995 167.504C601.468 157.628 608.669 137.098 608.669 137.098C608.669 137.098 617.769 134.519 639.227 127.757C641.222 127.124 643.363 126.54 645.553 126.103C649.251 125.324 652.997 124.935 656.695 124.74C690.902 122.94 707.008 137.146 707.008 137.146Z" fill="#FFBA41"/>
<path d="M671.682 303.921C671.877 303.872 671.974 303.775 671.926 303.629C669.298 288.839 671.828 276.968 674.456 269.573C677.278 261.595 680.781 257.07 680.781 257.021C680.879 256.924 680.83 256.73 680.733 256.632C680.635 256.535 680.441 256.584 680.343 256.681C680.197 256.876 666.281 275.217 671.39 303.726C671.439 303.872 671.536 303.921 671.682 303.921Z" fill="#66192D"/>
<path d="M705.792 208.128C705.792 208.128 681.657 189.397 680.587 165.218C679.516 141.038 667.595 143.86 659.566 144.541C651.586 145.174 640.59 144.541 639.325 151.206C638.059 157.871 643.071 175.094 632.756 190.711C622.391 206.327 619.229 206.619 619.229 206.619L625.943 256.924L706.911 247.729L705.792 208.128Z" fill="#0288D1"/>
<path d="M669.2 146.195L670.028 124.74C670.028 124.74 665.794 123.427 663.118 124.643L663.605 147.509L669.2 146.195Z" fill="#0288D1"/>
<path d="M649.104 147.46L637.28 128.681C637.28 128.681 630.03 127.903 629.203 131.211L643.168 152.325L649.104 147.46Z" fill="#0288D1"/>
<path d="M567.164 92.6795C567.65 92.9228 568.234 92.7282 568.478 92.2417L581.81 64.9C582.053 64.4135 581.859 63.8297 581.372 63.5864C580.886 63.3432 580.302 63.5378 580.058 64.0243L566.726 91.366C566.483 91.8525 566.677 92.4363 567.164 92.6795Z" fill="#66192D"/>
<path d="M553.929 119.827C556.605 121.14 559.816 120.07 561.13 117.345L573.392 92.193C574.706 89.5172 573.587 86.209 570.959 84.8468C568.283 83.5332 565.071 84.6035 563.758 87.3279L551.496 112.48C550.182 115.205 551.301 118.464 553.929 119.827Z" fill="#FF8548"/>
<path d="M555.875 115.983L555.437 116.275C554.707 116.81 553.637 116.616 553.101 115.886L547.262 107.518C546.727 106.74 546.922 105.718 547.652 105.183L548.09 104.891C548.819 104.356 549.89 104.55 550.425 105.28L556.264 113.648C556.799 114.426 556.605 115.448 555.875 115.983Z" fill="#FDAD9B"/>
<path d="M559.865 113.113L559.476 113.405C558.697 113.94 557.675 113.745 557.091 113.015L549.501 102.118C548.965 101.339 549.16 100.269 549.89 99.7339L550.279 99.442C551.058 98.9068 552.079 99.1014 552.615 99.8312L560.205 110.729C560.789 111.507 560.643 112.578 559.865 113.113Z" fill="#FDAD9B"/>
<path d="M566.288 120.41L565.607 120.362C564.342 120.313 563.32 119.145 563.417 117.881L564.098 105.231C564.147 103.918 565.266 102.945 566.531 102.993L567.212 103.042C568.478 103.091 569.499 104.258 569.402 105.523L568.721 118.172C568.672 119.486 567.553 120.459 566.288 120.41Z" fill="#FDAD9B"/>
<path d="M563.709 110.388C562.833 111.021 561.617 110.778 561.033 109.902L552.517 97.6905C551.885 96.8148 552.128 95.5986 552.955 94.9661C553.831 94.3336 555.048 94.5769 555.632 95.4526L564.147 107.664C564.779 108.54 564.585 109.756 563.709 110.388Z" fill="#FDAD9B"/>
<path d="M558.356 125.859C558.356 125.859 548.333 121.286 546.435 113.551C545.802 110.875 555.68 99.7825 558.308 101.291C560.984 102.75 568.137 114.475 568.137 114.475L558.356 125.859Z" fill="#FDAD9B"/>
<path d="M551.933 118.854L551.398 119.243C550.668 119.729 549.695 119.583 549.208 118.854L544.489 112.14C544.002 111.41 544.148 110.437 544.878 109.902L545.413 109.513C546.143 109.026 547.116 109.172 547.603 109.902L552.323 116.616C552.809 117.345 552.663 118.318 551.933 118.854Z" fill="#FDAD9B"/>
<path d="M125.101 442.964C125.101 442.964 125.247 449.629 129.772 451.478C134.249 453.376 147.289 455.03 142.424 459.311C139.65 461.743 126.464 460.187 122.766 460.187C119.067 460.187 115.564 461.792 112.791 459.311C109.774 456.587 112.791 442.964 112.791 442.964C112.791 442.964 116.002 444.618 118.873 444.57C123.009 444.472 125.101 442.964 125.101 442.964Z" fill="#66192D"/>
<path d="M47.588 443.159C47.588 443.159 45.739 449.532 49.437 452.694C53.1351 455.857 65.0564 461.452 59.1201 464.03C55.714 465.49 43.6467 459.992 40.0946 458.824C36.5425 457.705 32.7472 458.143 30.8495 454.932C28.8058 451.381 35.8613 439.364 35.8613 439.364C35.8613 439.364 38.3915 441.943 41.1651 442.77C45.1551 443.937 47.588 443.159 47.588 443.159Z" fill="#66192D"/>
<path d="M126.95 303.726C125.344 303.094 124.76 300.758 125.636 298.472C126.123 297.11 127.096 296.039 128.118 295.553C128.799 295.261 129.48 295.212 130.064 295.455C131.67 296.088 132.254 298.423 131.378 300.71C130.891 302.072 129.918 303.142 128.896 303.629C128.507 303.775 128.118 303.872 127.777 303.872C127.485 303.872 127.242 303.823 126.95 303.726ZM128.459 296.283C127.583 296.672 126.804 297.596 126.366 298.715C125.685 300.515 126.074 302.461 127.242 302.899C127.631 303.045 128.118 303.045 128.556 302.802C129.432 302.413 130.21 301.488 130.648 300.369C131.329 298.569 130.94 296.623 129.772 296.185C129.626 296.137 129.432 296.088 129.237 296.088C128.994 296.137 128.75 296.185 128.459 296.283Z" fill="#E08B65"/>
<path d="M250.105 267.725L254.484 254.248C253.413 253.47 217.893 236.053 191.033 196.549C191.033 196.549 189.963 194.359 181.009 198.981C171.813 203.7 172.494 207.3 172.494 207.3C194.099 248.945 249.472 267.287 250.105 267.725Z" fill="#EAA678"/>
<path d="M158.481 280.228C157.313 292.926 153.809 321.921 150.501 341.966C144.078 380.497 136.536 419.32 132.789 437.953C131.475 444.618 125.879 449.484 119.213 449.727L115.661 449.873C108.508 450.165 102.669 443.986 103.204 436.688L111.574 319.975L112.255 310.78L113.861 280.86C119.359 282.612 101.745 274.39 105.491 278.185L97.4141 271.082C97.3654 271.033 145.343 265.438 158.481 280.228Z" fill="#0288D1"/>
<path d="M128.604 280.958L111.525 319.927L59.9959 437.418C57.1737 443.889 50.6534 447.781 43.7439 447.148L40.7271 446.856C33.6716 446.175 29.0004 439.072 31.044 432.115C31.044 432.115 72.1118 271.373 74.0095 265.633C74.0095 265.633 96.4898 269.476 112.206 274.487C117.802 276.238 124.858 277.211 128.604 280.958Z" fill="#0288D1"/>
<path d="M104.908 173.391C104.908 173.391 116.635 156.217 142.91 162.104C171.813 168.575 173.808 184.24 170.354 214.403C168.164 233.475 161.644 269.184 156.778 296.185C156.778 296.185 131.329 265.341 82.8169 236.734C82.8169 236.734 93.911 189.348 104.908 173.391Z" fill="#FF8548"/>
<path d="M83.6924 233.134C83.6924 233.134 88.5096 239.361 101.842 233.134C117.607 225.739 149.138 209.879 162.033 210.852C174.927 211.825 192.201 194.165 192.201 194.165C192.201 194.165 175.657 174.705 154.15 165.607C152.106 164.731 150.014 163.953 147.776 163.272C144.029 162.104 140.185 161.423 136.39 160.742C89.872 152.325 83.6924 233.134 83.6924 233.134Z" fill="#FF8548"/>
<path d="M141.012 164.634C140.38 161.861 142.521 162.445 144.029 160.45L148.652 154.223L150.014 152.423L157.945 141.768L154.247 153.833L152.009 161.082L151.328 163.369C150.841 164.926 151.182 165.266 151.863 167.018C152.155 167.699 153.08 170.521 150.452 170.764C148.068 170.958 141.791 168.137 141.012 164.634Z" fill="#FDAD9B"/>
<path d="M146.949 150.525C146.949 150.525 136.828 142.157 141.742 134.13C146.657 126.103 149.43 145.903 149.43 145.903L148.214 150.622L146.949 150.525Z" fill="#66192D"/>
<path d="M148.652 153.979C148.652 154.028 148.652 154.125 148.603 154.174C148.019 158.212 151.912 161.034 151.912 161.034H151.961L154.199 153.785C152.982 153.006 151.231 152.082 149.966 152.374C149.333 152.52 148.846 153.006 148.652 153.979Z" fill="#66192D"/>
<path d="M168.399 147.636C170.039 140.431 166.525 133.488 160.55 132.128C154.576 130.769 148.403 135.508 146.763 142.713C145.123 149.918 148.637 156.861 154.612 158.22C160.586 159.579 166.759 154.841 168.399 147.636Z" fill="#FDAD9B"/>
<path d="M148.701 141.573C148.701 141.573 151.863 143.519 154.296 141.525C156.681 139.53 158.384 137.633 164.223 140.065C170.11 142.498 176.193 140.795 177.117 137.535C178.042 134.276 175.171 132.038 171.619 132.427C168.067 132.816 172.251 130.578 169.526 127.416C166.802 124.254 160.768 128.146 157.556 126.686C154.345 125.227 143.105 124.594 141.791 134.13L148.701 141.573Z" fill="#66192D"/>
<path d="M149.627 144.246C150.568 143.53 150.673 142.083 149.86 141.014C149.047 139.944 147.625 139.657 146.683 140.372C145.742 141.087 145.638 142.534 146.45 143.604C147.263 144.674 148.686 144.961 149.627 144.246Z" fill="#FDAD9B"/>
<path d="M170.548 136.708C170.84 136.708 171.083 136.66 171.327 136.611C172.494 136.222 172.786 135.589 172.689 135.152C172.543 134.616 171.813 134.179 170.791 134.324C169.04 134.616 168.066 134.081 168.066 134.081L168.018 134.227C168.066 134.227 169.088 134.762 170.84 134.47C171.765 134.324 172.446 134.714 172.543 135.152C172.64 135.541 172.348 136.076 171.278 136.416C169.088 137.146 165.001 133.984 164.952 133.984L164.855 134.081C165.05 134.276 168.261 136.708 170.548 136.708Z" fill="white"/>
<path d="M159.843 129.557C162.325 129.557 164.612 128.292 164.758 128.097L164.66 128C164.514 128.146 161.157 130.092 158.092 129.168C157.07 128.876 156.194 128.486 155.367 128.097C153.664 127.367 152.155 126.686 150.598 127.124L150.647 127.27C152.204 126.881 153.664 127.513 155.318 128.243C156.194 128.632 157.07 129.022 158.043 129.313C158.675 129.459 159.259 129.557 159.843 129.557Z" fill="white"/>
<path d="M144.467 133.303C144.321 133.254 144.224 133.157 144.272 132.768C144.321 132.67 145.489 130.822 146.267 131.211C146.365 131.26 146.511 131.405 146.365 131.746C146.121 132.378 145.051 133.351 144.516 133.351C144.564 133.351 144.516 133.303 144.467 133.303ZM144.467 132.816C144.418 132.962 144.418 133.157 144.564 133.206C144.905 133.303 146.073 132.33 146.316 131.697C146.413 131.454 146.316 131.357 146.267 131.357C146.219 131.308 146.17 131.308 146.073 131.308C145.489 131.308 144.759 132.33 144.467 132.816Z" fill="white"/>
<path d="M159.746 145.368C159.795 145.368 159.892 145.32 159.892 145.222C159.941 145.125 159.892 144.979 159.795 144.93C159.746 144.882 158.238 144.055 156.826 145.417C156.729 145.514 156.729 145.66 156.826 145.757C156.924 145.855 157.021 145.855 157.167 145.757C158.238 145.125 159.551 145.32 159.6 145.368C159.649 145.417 159.697 145.417 159.746 145.368Z" fill="#060633"/>
<path d="M159.228 147.882C159.275 147.347 158.988 146.884 158.586 146.849C158.185 146.813 157.821 147.219 157.774 147.754C157.726 148.289 158.013 148.752 158.415 148.787C158.817 148.823 159.18 148.418 159.228 147.882Z" fill="#060633"/>
<path d="M167.775 147.655C167.823 147.655 167.872 147.655 167.921 147.606C168.018 147.509 168.018 147.363 167.921 147.314C167.872 147.266 167.142 145.952 165.682 146.779C165.585 146.828 165.536 146.974 165.585 147.071C165.634 147.168 165.731 147.217 165.828 147.168C166.801 146.925 167.677 147.557 167.677 147.606C167.726 147.606 167.726 147.655 167.775 147.655Z" fill="#060633"/>
<path d="M166.308 149.749C166.555 149.272 166.466 148.735 166.109 148.549C165.751 148.363 165.26 148.599 165.012 149.076C164.764 149.552 164.853 150.09 165.211 150.275C165.569 150.461 166.06 150.226 166.308 149.749Z" fill="#060633"/>
<path d="M158.529 155.196C159.551 155.196 160.33 154.952 160.378 154.952C160.476 154.904 160.524 154.855 160.476 154.758C160.427 154.66 160.378 154.612 160.281 154.66C160.135 154.709 156.534 155.828 154.539 152.812C154.491 152.763 154.393 152.714 154.345 152.763C154.296 152.812 154.247 152.909 154.296 152.958C155.464 154.806 157.216 155.196 158.529 155.196Z" fill="#020202"/>
<path d="M153.956 153.59C154.004 153.59 154.102 153.542 154.102 153.493C154.15 153.25 154.345 152.909 154.929 152.52L154.977 152.471C155.026 152.423 155.075 152.325 155.026 152.228C154.977 152.179 154.88 152.131 154.783 152.179C154.199 152.568 153.907 152.958 153.81 153.347C153.81 153.444 153.858 153.542 153.956 153.59Z" fill="#020202"/>
<path d="M164.66 155.877C162.617 154.174 162.422 149.844 164.174 146.244C165.244 144.055 166.899 142.546 168.553 142.206C169.526 142.011 170.451 142.255 171.229 142.887C173.273 144.59 173.468 148.92 171.716 152.52C170.645 154.709 168.991 156.217 167.337 156.558C167.093 156.606 166.899 156.606 166.655 156.606C165.926 156.606 165.244 156.363 164.66 155.877ZM168.65 142.644C167.142 142.936 165.634 144.395 164.612 146.438C162.957 149.844 163.103 153.882 164.952 155.488C165.585 156.023 166.363 156.217 167.191 156.071C168.699 155.779 170.208 154.32 171.229 152.277C172.884 148.871 172.738 144.833 170.889 143.228C170.402 142.79 169.818 142.595 169.234 142.595C169.04 142.595 168.845 142.595 168.65 142.644Z" fill="white"/>
<g opacity="0.3">
<path d="M152.544 142.011C151.182 145.563 151.912 149.649 154.199 151.206C156.486 152.763 159.454 151.158 160.865 147.655C162.228 144.103 161.498 140.017 159.211 138.46C156.924 136.854 153.907 138.46 152.544 142.011Z" fill="white"/>
</g>
<g opacity="0.3">
<path d="M164.028 146.536C162.666 150.087 163.152 154.223 165.196 155.779C167.239 157.336 169.964 155.731 171.375 152.179C172.738 148.628 172.251 144.492 170.208 142.936C168.164 141.379 165.439 142.984 164.028 146.536Z" fill="white"/>
</g>
<path d="M154.296 151.304C151.766 149.601 150.89 145.174 152.398 141.379C153.274 139.19 154.734 137.633 156.437 137.098C157.605 136.708 158.773 136.903 159.794 137.584C162.325 139.287 163.201 143.714 161.692 147.509C160.816 149.698 159.357 151.255 157.654 151.79C157.264 151.936 156.826 151.985 156.437 151.985C155.659 151.936 154.929 151.741 154.296 151.304ZM156.583 137.535C155.026 138.022 153.615 139.53 152.836 141.573C151.425 145.174 152.204 149.358 154.539 150.914C155.464 151.498 156.486 151.644 157.508 151.352C159.065 150.866 160.476 149.358 161.254 147.314C162.665 143.714 161.887 139.53 159.551 137.973C158.967 137.584 158.335 137.389 157.654 137.389C157.313 137.389 156.972 137.438 156.583 137.535Z" fill="white"/>
<path d="M164.369 147.947C164.466 147.947 164.563 147.898 164.661 147.849C164.855 147.703 164.855 147.412 164.709 147.217C164.661 147.168 163.444 145.806 161.011 145.903C160.768 145.903 160.573 146.098 160.573 146.341C160.573 146.584 160.817 146.779 161.011 146.779C163.006 146.682 163.979 147.752 164.028 147.801C164.174 147.898 164.271 147.947 164.369 147.947Z" fill="white"/>
<path d="M141.694 134.227L141.888 134.081C140.526 132.622 141.645 130.919 141.645 130.919L141.45 130.773C141.402 130.773 140.185 132.622 141.694 134.227Z" fill="#66192D"/>
<path d="M139.553 136.271C139.553 136.271 140.964 135.2 142.034 135.346L142.083 135.103C140.915 134.957 139.455 136.027 139.407 136.076L139.553 136.271Z" fill="#66192D"/>
<path d="M97.8036 201.365C100.042 203.554 106.805 200.441 112.888 194.408C118.97 188.375 122.084 181.71 119.846 179.472C117.608 177.283 110.844 180.397 104.762 186.429C98.6795 192.462 95.5653 199.176 97.8036 201.365Z" fill="#66192D"/>
<path d="M255.603 261.497C256.284 260.768 257.5 260.719 258.23 261.4L268.059 270.498C268.789 271.179 268.838 272.395 268.157 273.125C267.475 273.855 266.259 273.903 265.529 273.222L255.7 264.124C254.922 263.443 254.873 262.227 255.603 261.497Z" fill="#EAA678"/>
<path d="M252.343 265C253.024 264.27 254.24 264.222 254.97 264.903L267.719 276.725C268.449 277.406 268.497 278.622 267.816 279.352C267.135 280.082 265.918 280.131 265.189 279.449L252.44 267.627C251.71 266.898 251.662 265.73 252.343 265Z" fill="#EAA678"/>
<path d="M244.703 259.649L245.336 259.551C246.552 259.357 247.72 260.232 247.915 261.449L249.715 273.319C249.91 274.536 249.034 275.703 247.818 275.898L247.185 275.995C245.969 276.19 244.801 275.314 244.606 274.098L242.806 262.227C242.66 260.962 243.487 259.843 244.703 259.649Z" fill="#EAA678"/>
<path d="M249.131 268.454C249.812 267.725 251.029 267.676 251.759 268.357L262.172 278.039C262.901 278.72 262.95 279.936 262.269 280.666C261.588 281.395 260.371 281.444 259.641 280.763L249.228 271.082C248.45 270.4 248.401 269.233 249.131 268.454Z" fill="#EAA678"/>
<path d="M251.175 252.983C251.175 252.983 261.539 255.27 264.8 262.081C265.919 264.416 258.766 276.676 255.944 275.849C253.121 275.022 244.12 265.535 244.12 265.535L251.175 252.983Z" fill="#EAA678"/>
<path d="M258.717 258.092L258.814 257.994C259.496 257.265 260.615 257.216 261.345 257.897L269.276 265.243C270.006 265.925 270.054 267.043 269.373 267.773L269.276 267.871C268.595 268.6 267.476 268.649 266.746 267.968L258.814 260.622C258.133 259.94 258.084 258.773 258.717 258.092Z" fill="#EAA678"/>
<path d="M191.423 255.027L198.624 254.735C198.624 254.638 198.332 245.832 200.376 236.977C202.906 226.177 207.626 220.339 214.341 219.609C220.082 218.977 224.218 220.971 227.041 225.642C229.376 229.485 229.863 233.718 229.863 233.766L237.016 232.988C236.967 232.55 235.848 222.334 228.5 216.398C224.462 213.139 219.45 211.825 213.562 212.457C190.109 214.939 191.325 253.373 191.423 255.027Z" fill="#FF443C"/>
<path d="M233.792 234.553C235.991 234.044 237.627 232.996 237.445 232.21C237.264 231.425 235.333 231.2 233.134 231.709C230.935 232.217 229.299 233.266 229.481 234.052C229.662 234.837 231.593 235.061 233.792 234.553Z" fill="#66192D"/>
<path d="M180.961 263.784L185.292 280.812C185.876 283.196 188.017 284.85 190.449 284.947L292.584 287.623C295.017 287.671 297.158 286.163 297.936 283.877L305.138 261.887C306.257 258.432 303.727 254.832 300.126 254.735L190.887 251.524C184.27 251.281 179.355 257.411 180.961 263.784Z" fill="#FFBA41"/>
<path d="M302.315 464.03H185.875C180.328 464.03 175.754 459.603 175.56 454.057L170.353 295.31C170.159 289.374 174.976 284.509 180.912 284.655L305.721 287.915C311.366 288.061 315.842 292.731 315.745 298.423L312.631 453.959C312.485 459.554 307.911 464.03 302.315 464.03Z" fill="#786AB5"/>
<path d="M182.956 443.11L178.43 306.256C178.333 303.677 179.306 301.196 181.155 299.396C183.004 297.547 185.389 296.574 188.016 296.623L295.6 299.445C300.709 299.591 304.797 303.823 304.699 308.932L302.023 443.013C301.926 448.073 297.741 452.159 292.681 452.159H192.25C187.189 452.111 183.102 448.17 182.956 443.11ZM181.739 299.98C180.085 301.634 179.209 303.872 179.306 306.207L183.832 443.062C183.978 447.635 187.676 451.186 192.25 451.186H292.583C297.157 451.186 300.904 447.489 301.001 442.916L303.678 308.834C303.775 304.213 300.077 300.369 295.454 300.223L187.87 297.402C187.773 297.402 187.724 297.402 187.627 297.402C185.437 297.499 183.345 298.375 181.739 299.98Z" fill="#66192D"/>
<path d="M243.497 298.869L242.573 298.891L246.246 450.927L247.17 450.905L243.497 298.869Z" fill="#66192D"/>
<path d="M156.048 302.413C156.048 302.413 172.689 226.08 172.738 217.955C172.786 209.83 175.803 198.251 156.048 194.603C136.293 190.954 129.724 189.154 126.074 198.3C122.473 207.446 114.348 227.539 98.6308 227.442C82.9141 227.345 79.654 238.096 79.654 238.096L65.835 297.012L156.048 302.413Z" fill="#0288D1"/>
<path d="M111.914 320.073L116.877 308.202C119.992 300.758 122.084 297.158 128.799 293.947L128.458 293.169C121.5 296.429 119.262 300.321 116.099 307.861L111.136 319.732L111.914 320.073Z" fill="#020202"/>
<path d="M187.043 245.297L181.788 263.979C141.499 243.253 110.698 209.83 103.983 201.365C103.01 200.1 102.669 198.495 103.107 196.938C103.74 194.603 105.199 191.003 108.314 187.597C111.379 184.24 113.909 182.051 115.612 180.786C116.877 179.813 118.629 180.056 119.602 181.272C126.852 190.175 152.252 227.442 187.043 245.297Z" fill="#FDAD9B"/>
<path d="M193.125 271.909L210.74 245.297C210.74 245.297 217.017 245.783 220.131 239.507C223.245 233.231 218.136 234.399 215.605 236.491C213.027 238.583 209.864 237.269 209.669 234.642C209.426 232.015 211.518 227.539 208.063 227.442C204.609 227.345 200.862 234.934 204.706 241.161L187.529 267.092C187.529 267.092 172.932 265.049 172.737 277.99C172.737 277.99 175.511 281.931 177.409 278.476C179.306 275.022 182.469 270.887 186.654 274.147C190.838 277.455 190.887 278.768 189.427 281.347C187.967 283.925 184.318 285.92 186.556 287.623C188.843 289.326 191.276 288.985 193.466 285.239C195.704 281.493 196.337 274.39 193.125 271.909Z" fill="#66192D"/>
<path d="M188.503 260.086L188.211 260.476C187.578 261.351 187.773 262.568 188.649 263.2L198.478 270.254C199.354 270.887 200.57 270.692 201.203 269.817L201.495 269.427C202.127 268.552 201.932 267.335 201.057 266.703L191.228 259.649C190.352 259.016 189.135 259.211 188.503 260.086Z" fill="#FDAD9B"/>
<path d="M191.812 255.513L191.471 255.951C190.838 256.827 191.033 257.994 191.909 258.627L203.198 266.752C204.074 267.384 205.241 267.189 205.874 266.314L206.215 265.876C206.847 265 206.652 263.833 205.777 263.2L194.488 255.075C193.612 254.443 192.396 254.638 191.812 255.513Z" fill="#FDAD9B"/>
<path d="M183.686 248.313L183.734 248.848C183.832 250.356 185.097 251.573 186.654 251.475L202.468 250.697C203.976 250.6 205.193 249.335 205.095 247.778L205.047 247.243C204.949 245.735 203.684 244.518 202.127 244.616L186.313 245.394C184.805 245.443 183.637 246.756 183.686 248.313Z" fill="#FDAD9B"/>
<path d="M195.072 250.989L194.78 251.378C194.147 252.254 194.342 253.47 195.218 254.102L205.193 261.254C206.068 261.887 207.285 261.692 207.917 260.816L208.209 260.427C208.842 259.551 208.647 258.335 207.771 257.703L197.748 250.551C196.921 249.918 195.655 250.113 195.072 250.989Z" fill="#FDAD9B"/>
<path d="M177.506 257.167C177.506 257.167 182.566 268.6 191.179 270.79C194.147 271.568 206.652 260.378 204.998 257.362C203.344 254.346 190.303 246.124 190.303 246.124L177.506 257.167Z" fill="#FDAD9B"/>
<path d="M185.34 264.465L184.902 265.097C184.318 265.925 184.513 267.043 185.34 267.627L192.493 272.736C193.32 273.319 194.439 273.125 195.023 272.298L195.461 271.665C196.045 270.838 195.85 269.719 195.023 269.135L187.87 264.027C187.043 263.492 185.924 263.687 185.34 264.465Z" fill="#FDAD9B"/>
<path d="M158.529 166.191C158.529 166.191 166.023 191.197 165.682 201.316L159.551 200.197C159.551 200.197 154.977 170.715 154.15 165.656C154.15 165.656 157.897 164.099 158.529 166.191Z" fill="#0288D1"/>
<path d="M139.114 194.895C139.212 194.213 142.423 173.245 137.947 161.228C137.947 161.228 135.952 159.136 133.713 160.109C133.713 160.109 138.871 184.873 134.297 194.895H137.995H139.114Z" fill="#0288D1"/>
<path d="M160.573 202.046C160.573 202.046 158.675 200.295 159.357 198.933C160.038 197.57 161.254 197.23 162.373 197.668C163.493 198.106 163.639 200.003 163.249 200.879C162.86 201.754 161.206 202.825 160.573 202.046Z" fill="#66192D"/>
<path d="M134.687 196.014C134.687 196.014 135.611 194.116 136.974 193.727C138.336 193.338 139.455 194.554 139.309 196.014C139.163 197.473 138.287 198.106 136.974 198.008C135.708 197.96 134.395 197.181 134.687 196.014Z" fill="#66192D"/>
<path d="M571.592 258.238L568.429 286.261C568.089 289.082 565.753 291.174 562.979 291.174H477C474.129 291.174 471.696 288.888 471.55 285.969L469.847 256.827C469.652 253.616 472.183 250.891 475.394 250.94L566.288 252.01C569.5 252.108 571.981 254.978 571.592 258.238Z" fill="#FFBA41"/>
<path d="M538.747 247.291L543.419 245.978L540.937 237.367C539.769 233.329 536.071 230.458 531.886 230.458H508.822C504.102 230.458 500.112 234.01 499.48 238.729L498.458 246.318L503.275 246.951L504.297 239.361C504.589 237.075 506.535 235.323 508.822 235.323H531.886C533.881 235.323 535.682 236.685 536.266 238.68L538.747 247.291Z" fill="#66192D"/>
<path d="M577.966 249.87V253.275C577.966 256.194 575.63 258.578 572.76 258.627L470.869 259.941C467.949 259.989 465.516 257.557 465.516 254.589V250.989C465.516 248.07 467.852 245.686 470.723 245.637L572.614 244.518C575.533 244.47 577.966 246.902 577.966 249.87Z" fill="#FF443C"/>
<path d="M403.574 301.002C434.375 319.343 471.161 317.348 496.609 312.483L492.668 292.828C462.159 298.715 440.7 292.974 421.042 281.785C413.646 277.601 390.874 293.412 403.574 301.002Z" fill="#FDAD9B"/>
<path d="M598.403 469.284C584.146 476.874 491.597 472.106 457.439 470.063C450.286 469.625 444.69 463.641 444.642 456.343C444.544 424.185 444.447 340.603 444.398 306.499C444.398 298.229 450.919 291.417 459.045 291.223C489.894 290.444 560.546 288.936 585.07 288.547C589.839 288.45 593.78 292.293 593.926 297.158C594.899 333.257 611.541 462.279 598.403 469.284Z" fill="#FF8548"/>
<path d="M531.351 307.278C532.032 304.407 534.806 301.926 537.677 301.926C540.596 301.926 543.759 302.753 543.759 308.105C543.759 311.072 540.596 312.629 537.677 312.629C534.757 312.629 530.378 311.267 531.351 307.278Z" fill="#C8C1E1"/>
<path d="M511.109 307.278C511.79 304.407 514.564 301.926 517.435 301.926C520.354 301.926 523.517 302.753 523.517 308.105C523.517 311.072 520.354 312.629 517.435 312.629C514.515 312.629 510.136 311.267 511.109 307.278Z" fill="#C8C1E1"/>
<path d="M491.305 307.278C491.987 304.407 494.76 301.926 497.631 301.926C500.551 301.926 503.713 302.753 503.713 308.105C503.713 311.072 500.551 312.629 497.631 312.629C494.76 312.629 490.381 311.267 491.305 307.278Z" fill="#C8C1E1"/>
<path d="M473.107 307.278C473.788 304.407 476.562 301.926 479.433 301.926C482.303 301.926 485.515 302.753 485.515 308.105C485.515 311.072 482.352 312.629 479.433 312.629C476.513 312.629 472.182 311.267 473.107 307.278Z" fill="#C8C1E1"/>
<path d="M558.259 297.596L579.182 298.423C581.08 298.521 582.589 300.029 582.734 301.926L583.416 313.018C583.562 315.256 581.713 317.154 579.474 316.959L557.87 315.305C555.972 315.159 554.464 313.554 554.464 311.608V301.342C554.415 299.202 556.167 297.499 558.259 297.596Z" fill="#66192D"/>
<path d="M461.721 388.865C461.721 356.999 487.364 327.808 518.603 331.165C557.335 335.3 575.484 356.999 575.484 388.865C575.484 420.731 550.036 446.564 518.603 446.564C487.169 446.564 461.721 420.731 461.721 388.865Z" fill="#66192D"/>
<path d="M457.634 388.865C458.753 354.761 477.486 329.462 518.603 327.03C566.97 324.159 579.572 354.761 579.572 388.865C579.572 432.407 552.226 450.7 518.603 450.7C484.98 450.7 456.125 433.867 457.634 388.865ZM469.75 385.605C469.75 415.136 484.396 437.515 518.603 442.429C547.409 446.564 568.916 423.699 568.916 394.168C568.916 364.637 552.567 332.381 518.603 335.3C489.456 335.3 469.75 356.074 469.75 385.605Z" fill="#C8C1E1"/>
<path d="M474.129 408.909H465.808V370.913H476.659C480.941 370.913 484.396 374.367 484.396 378.648V398.644C484.396 404.336 479.773 408.909 474.129 408.909Z" fill="#C8C1E1"/>
<path d="M436.272 466.998C436.272 466.998 436.467 474.295 441.333 476.387C446.199 478.431 460.31 480.328 455.054 484.999C452.038 487.674 437.781 485.972 433.742 485.972C429.703 485.972 425.957 487.772 422.94 484.999C419.631 481.982 422.94 466.998 422.94 466.998C422.94 466.998 426.395 468.846 429.557 468.749C434.034 468.652 436.272 466.998 436.272 466.998Z" fill="#66192D"/>
<path d="M278.084 460.673C278.084 460.673 270.882 460.819 268.839 465.782C266.795 470.695 264.897 485.047 260.323 479.647C257.696 476.582 259.447 462.084 259.447 457.997C259.447 453.911 257.696 450.067 260.421 447.051C263.389 443.743 278.132 447.1 278.132 447.1C278.132 447.1 276.332 450.603 276.381 453.813C276.478 458.387 278.084 460.673 278.084 460.673Z" fill="#66192D"/>
<path d="M426.638 472.495C417.977 470.549 412.673 461.695 414.96 453.035C415.885 449.532 416.858 445.64 417.782 441.602C419.145 435.715 419.972 430.753 420.799 426.666C424.692 407.693 362.166 404.141 362.166 394.022L368.734 351.89C369.464 351.988 438.803 370.913 452.67 385.411C461.867 394.995 467.706 411.877 456.904 443.889C454.617 450.748 452.378 457.219 450.529 462.571C447.707 470.695 439.387 475.414 431.115 473.566L426.638 472.495Z" fill="#0288D1"/>
<path d="M280.322 470.841C275.505 468.944 271.369 465.781 272.147 460.576L273.51 451.673C274.24 446.905 278.035 443.159 282.755 442.624C299.348 440.629 337.545 446.418 341.972 441.31C345.087 437.71 333.798 411.828 332.046 378.745C331.657 371.74 331.024 365.464 330.83 359.772C330.197 340.847 381.726 341.625 385.911 365.658C392.334 402.536 394.086 461.938 380.899 478.382C367.372 495.264 307.717 481.496 280.322 470.841Z" fill="#0288D1"/>
<path d="M345.768 271.617C345.768 271.617 353.31 257.167 385.716 263.784C395.448 265.779 399.778 271.276 404.644 274.73C412.138 280.082 412.673 284.363 409.705 292.536C402.941 310.975 394.329 337.976 413.208 365.902C413.208 365.902 334.673 387.6 332.922 359.528C332.873 359.48 321.584 311.17 345.768 271.617Z" fill="#FF8548"/>
<path d="M329.71 284.412L353.309 281.639C353.309 281.639 392.382 301.05 405.033 301.829C417.685 302.607 427.854 282.709 427.854 282.709C427.854 282.709 416.274 270.303 390.533 264.757C386.738 263.93 382.991 263.054 379.244 262.616C327.715 256.292 329.71 284.412 329.71 284.412Z" fill="#FF8548"/>
<path d="M382.067 258.822L386.154 251.329L387.322 249.14L394.28 236.296L392.042 250.064L390.728 258.335L390.29 260.962C389.998 262.714 390.241 264.27 391.215 266.071C391.604 266.8 393.258 270.838 389.122 271.763C383.965 272.882 377.104 267.092 374.622 262.227C374.719 262.13 380.461 262.324 382.067 258.822Z" fill="#FDAD9B"/>
<path d="M329.71 284.412C329.905 285.093 330.684 285.531 331.997 285.823C335.111 286.455 341.096 285.969 347.714 284.363C352.775 283.098 357.202 281.444 360.073 279.839C362.506 278.476 363.82 277.163 363.528 276.141C363.236 275.071 361.29 274.487 358.273 274.487C354.964 274.438 350.439 275.022 345.524 276.19C338.761 277.844 333.165 280.228 330.83 282.271C330.002 283.05 329.564 283.779 329.71 284.412Z" fill="#66192D"/>
<path d="M406.153 233.377C406.153 233.377 406.348 236.88 404.644 240.869C402.941 244.859 400.849 233.766 400.849 233.766L406.153 233.377Z" fill="#66192D"/>
<path d="M404.839 242.183C405.423 233.912 400.46 226.809 393.696 226.323C386.933 225.836 380.996 232.112 380.412 240.383C379.828 248.654 384.792 255.757 391.555 256.243C398.319 256.73 404.255 250.454 404.839 242.183Z" fill="#FDAD9B"/>
<path d="M380.948 236.102L386.884 236.685C388.198 236.831 389.512 236.345 390.436 235.421C391.993 233.766 393.647 233.085 399 234.448C405.812 236.15 411.165 232.939 412.673 229.437C414.181 225.885 411.165 222.625 407.369 223.647C403.574 224.717 405.909 220.679 402.698 219.512C396.664 217.371 394.523 221.944 389.512 220.728C382.894 219.123 369.951 221.75 373.162 234.837L380.948 236.102Z" fill="#66192D"/>
<path d="M393.404 240.772C393.453 240.723 393.55 240.675 393.55 240.626C393.599 240.48 393.501 240.334 393.404 240.334C393.307 240.334 391.604 239.605 390.29 241.356C390.193 241.453 390.241 241.648 390.339 241.697C390.436 241.794 390.582 241.745 390.679 241.648C391.75 240.772 393.209 240.772 393.258 240.772C393.307 240.821 393.355 240.821 393.404 240.772Z" fill="#060633"/>
<path d="M392.565 244.769C392.994 244.742 393.311 244.241 393.274 243.651C393.236 243.061 392.857 242.605 392.428 242.633C391.999 242.66 391.682 243.161 391.72 243.751C391.758 244.341 392.136 244.797 392.565 244.769Z" fill="#060633"/>
<path d="M402.552 241.94C402.6 241.94 402.649 241.891 402.698 241.842C402.746 241.745 402.746 241.599 402.649 241.502C402.6 241.453 401.579 240.14 400.119 241.259C400.022 241.307 399.973 241.502 400.022 241.599C400.07 241.697 400.168 241.745 400.265 241.697C401.287 241.259 402.357 241.842 402.357 241.891C402.454 241.94 402.503 241.94 402.552 241.94Z" fill="#060633"/>
<path d="M399.827 244.032C399.633 244.616 399.827 245.199 400.217 245.297C400.606 245.443 401.092 245.102 401.287 244.518C401.482 243.934 401.287 243.351 400.898 243.253C400.509 243.107 400.022 243.448 399.827 244.032Z" fill="#060633"/>
<path d="M373.211 234.885C373.211 234.885 375.449 244.518 380.996 246.367C380.996 246.367 377.736 238.729 388.295 236.637C388.246 236.637 379.634 233.329 373.211 234.885Z" fill="#66192D"/>
<path d="M380.218 241.405C381.288 242.426 382.894 242.524 383.77 241.551C384.695 240.578 384.549 238.972 383.527 237.95C382.456 236.929 380.851 236.831 379.975 237.804C379.099 238.777 379.147 240.383 380.218 241.405Z" fill="#FDAD9B"/>
<path d="M388.246 236.637C388.246 236.637 385.959 243.837 387.176 245.54C388.392 247.243 398.027 249.87 402.941 249.043C402.065 253.811 397.929 257.265 393.161 257.119C391.604 257.07 389.998 256.73 388.49 256.146C385.424 254.929 382.602 252.935 381.872 249.627C381.677 248.605 383.964 243.253 383.964 243.253C383.964 243.253 385.084 240.042 383.527 237.95C383.527 237.95 386.154 236.394 388.246 236.637Z" fill="#66192D"/>
<path d="M400.022 251.232C400.022 251.232 396.081 251.475 392.042 250.21C392.042 250.21 391.847 254.2 396.178 254.297C398.659 254.346 400.022 251.232 400.022 251.232Z" fill="white"/>
<path d="M406.883 222.966L406.931 222.625C405.326 222.334 405.472 221.02 405.472 220.971L405.131 220.923C405.131 220.971 404.985 222.625 406.883 222.966Z" fill="#66192D"/>
<path d="M401.336 232.891C401.336 232.891 403.331 232.745 405.423 232.112C408.197 231.285 409.9 229.972 410.386 228.366C410.727 227.247 410.678 226.42 410.24 225.885C409.608 225.058 408.148 225.058 406.931 225.107C406.737 225.107 406.542 225.107 406.396 225.107V225.253C406.591 225.253 406.737 225.253 406.931 225.253C408.148 225.204 409.51 225.204 410.094 225.982C410.484 226.469 410.484 227.247 410.192 228.318C409.121 232.064 401.384 232.745 401.287 232.745L401.336 232.891Z" fill="white"/>
<path d="M391.458 222.479C392.772 222.479 393.891 222.285 394.718 222.042C396.664 221.506 397.735 220.679 397.735 220.631L397.638 220.485C397.638 220.485 396.567 221.361 394.669 221.896C392.918 222.382 390.047 222.723 386.446 221.409L386.397 221.555C388.295 222.236 389.998 222.479 391.458 222.479Z" fill="white"/>
<path d="M390.436 407.984C390.631 407.984 390.777 407.839 390.728 407.644L390.193 389.935C390.679 386.384 394.183 384.292 394.231 384.243C394.377 384.146 394.426 383.951 394.329 383.805C394.231 383.659 394.037 383.611 393.891 383.708C393.745 383.805 390.095 385.994 389.56 389.886V389.935L390.095 407.693C390.095 407.839 390.241 407.984 390.436 407.984Z" fill="#66192D"/>
<path d="M406.883 294.969C406.883 294.969 381.629 286.017 374.671 292.488C367.712 298.958 360.414 319.246 346.643 321.678C332.873 324.111 327.764 326.495 327.764 326.495C327.764 326.495 327.666 381.373 336.376 410.222L391.847 379.524L420.118 368.383C420.118 368.383 409.023 359.869 408.196 350.139C407.369 340.457 416.274 297.693 406.883 294.969Z" fill="#0288D1"/>
<path d="M436.711 331.846C436.711 331.846 444.447 325.619 450.14 326.592C455.833 327.614 462.354 333.208 458.704 333.354C455.055 333.5 450.335 332.381 450.335 332.381C450.335 332.381 460.31 335.252 458.655 337.344C457.001 339.436 448.34 336.809 448.34 336.809C448.34 336.809 459.921 341.187 457.731 342.647C455.541 344.106 446.734 340.701 446.734 340.701C446.734 340.701 457.39 345.225 454.763 346.831C452.135 348.436 446.004 343.036 444.301 345.079C442.647 347.171 435.251 354.809 429.022 350.771L436.711 331.846Z" fill="#FDAD9B"/>
<path d="M450.238 332.576L450.432 332.187C450.335 332.138 447.61 330.922 445.956 331.895L446.199 332.284C447.61 331.408 450.189 332.576 450.238 332.576Z" fill="#DD8964"/>
<path d="M448.194 337.052L448.388 336.663C448.291 336.614 445.664 335.349 443.133 336.273L443.279 336.663C445.615 335.836 448.145 337.003 448.194 337.052Z" fill="#DD8964"/>
<path d="M446.588 340.895L446.783 340.506C446.637 340.457 443.425 338.998 441.771 340.214L442.014 340.555C443.474 339.484 446.54 340.895 446.588 340.895Z" fill="#DD8964"/>
<path d="M330.878 282.271C331.121 283.196 331.51 284.412 331.997 285.823C334.235 292.05 339.101 302.51 349.125 313.456C373.357 340.068 409.121 348.971 434.861 351.793L436.71 331.846C405.812 328.489 386.933 316.667 371.313 300.223C365.425 293.996 361.873 285.288 360.073 279.839C359.051 276.822 358.613 274.779 358.613 274.73C358.613 274.73 358.516 274.633 358.321 274.438C355.013 274.39 350.487 274.974 345.573 276.141C338.809 277.844 333.214 280.228 330.878 282.271Z" fill="#FDAD9B"/>
<g opacity="0.5">
<path d="M372.14 325.814C369.756 323.673 369.026 320.657 370.437 319.002C370.972 318.37 371.702 318.029 372.627 317.981C374.087 317.883 375.838 318.565 377.249 319.878C379.634 322.019 380.364 325.035 378.952 326.689C378.417 327.322 377.687 327.662 376.763 327.711C376.665 327.711 376.568 327.711 376.471 327.711C375.06 327.711 373.454 327.03 372.14 325.814ZM372.676 319.002C372.238 319.051 371.654 319.148 371.216 319.684C370.194 320.9 370.924 323.332 372.821 325.035C374.038 326.105 375.449 326.738 376.665 326.641C377.103 326.592 377.687 326.495 378.125 325.959C379.147 324.743 378.417 322.311 376.52 320.608C375.4 319.586 374.038 319.002 372.919 319.002C372.821 319.002 372.773 319.002 372.676 319.002Z" fill="#E08B65"/>
</g>
<path d="M397.735 266.606C397.735 266.606 406.98 283.196 406.153 298.472L400.557 298.18C400.557 298.18 398.903 275.265 392.869 265.341C392.869 265.292 395.545 264.465 397.735 266.606Z" fill="#0288D1"/>
<path d="M380.704 292.488C380.899 291.661 377.59 268.357 370.535 261.692C370.535 261.692 367.226 260.427 365.669 261.692C365.669 261.692 374.865 282.417 374.671 294.045L380.704 292.488Z" fill="#0288D1"/>
<path d="M405.082 296.185C405.082 295.018 404.158 294.045 402.941 294.045C401.773 294.045 401.092 295.018 400.8 296.185C400.411 297.791 401.725 298.326 402.941 298.326C404.109 298.326 405.082 297.353 405.082 296.185Z" fill="#66192D"/>
<path d="M380.753 293.315C380.753 292.147 379.828 291.174 378.612 291.174C377.444 291.174 376.763 292.147 376.471 293.315C376.082 294.92 377.396 295.456 378.612 295.456C379.78 295.456 380.753 294.483 380.753 293.315Z" fill="#66192D"/>
<path d="M627.452 456.927L624.289 484.95C623.948 487.772 621.613 489.864 618.839 489.864H532.86C529.989 489.864 527.556 487.577 527.41 484.658L525.707 455.516C525.512 452.305 528.042 449.581 531.254 449.629L622.148 450.7C625.359 450.797 627.841 453.667 627.452 456.927Z" fill="#FFBA41"/>
<path d="M594.607 445.981L599.278 444.667L596.797 436.056C595.629 432.018 591.931 429.148 587.746 429.148H564.682C559.962 429.148 555.972 432.699 555.34 437.418L554.318 445.008L559.135 445.64L560.157 438.051C560.449 435.764 562.395 434.013 564.682 434.013H587.746C589.741 434.013 591.542 435.375 592.126 437.369L594.607 445.981Z" fill="#66192D"/>
<path d="M633.826 448.559V451.965C633.826 454.884 631.49 457.268 628.619 457.316L526.728 458.63C523.809 458.678 521.376 456.246 521.376 453.278V449.678C521.376 446.759 523.712 444.375 526.582 444.327L628.473 443.208C631.393 443.159 633.826 445.591 633.826 448.559Z" fill="#FF443C"/>
</svg>
